<?xml version="1.0" encoding="utf-8"?>
<!-- Generator: Adobe Illustrator 18.0.0, SVG Export Plug-In . SVG Version: 6.00 Build 0)  -->
<!DOCTYPE svg PUBLIC "-//W3C//DTD SVG 1.1//EN" "http://www.w3.org/Graphics/SVG/1.1/DTD/svg11.dtd">
<svg version="1.1" xmlns="http://www.w3.org/2000/svg" xmlns:xlink="http://www.w3.org/1999/xlink" x="0px" y="0px"
	 viewBox="0 0 234.3 134.7" enable-background="new 0 0 234.3 134.7" xml:space="preserve">
<g id="Txt" display="none">
	<g display="inline">
		<rect x="24.2" y="8.9" fill="none" width="8.9" height="9.2"/>
		<text transform="matrix(1 0 0 1 24.1755 17.7814)" fill="#8E8E8E" font-family="'Montserrat-Regular'" font-size="12">C</text>
	</g>
	<g display="inline">
		<rect x="39" y="8.8" fill="none" width="8.7" height="9.2"/>
		<text transform="matrix(1 0 0 1 38.9671 17.7398)" fill="#8E8E8E" font-family="'Montserrat-Regular'" font-size="12">C</text>
	</g>
	<g display="inline">
		<rect x="34" y="6.5" fill="none" width="4.7" height="13.7"/>
		<text transform="matrix(1 0 0 1 33.9792 16.8558)" fill="#46B249" font-family="'Montserrat-Regular'" font-size="14">|</text>
	</g>
	<rect x="19.8" y="21.6" display="inline" fill="none" width="32.6" height="3.7"/>
	<text transform="matrix(1 0 0 1 19.7497 24.5716)" display="inline"><tspan x="0" y="0" fill="#8E8E8E" font-family="'Montserrat-Regular'" font-size="4">CONDOMI</tspan><tspan x="21.2" y="0" fill="#8E8E8E" font-family="'Montserrat-Regular'" font-size="4">-</tspan></text>
</g>
<g id="svg">
	<g>
		<g>
			<g>
				<path fill="#8E8E8E" d="M59.5,78.7c-4.3-2.4-7.7-5.7-10.1-9.9c-2.5-4.2-3.7-8.9-3.7-14.1c0-5.2,1.2-9.9,3.7-14.1
					c2.5-4.2,5.8-7.5,10.2-9.9s9.2-3.6,14.6-3.6c4,0,7.7,0.7,11.2,2c3.4,1.3,6.3,3.3,8.7,5.9l-3.6,3.6c-4.2-4.3-9.6-6.4-16-6.4
					c-4.3,0-8.2,1-11.7,2.9c-3.5,2-6.3,4.6-8.3,8.1c-2,3.4-3,7.2-3,11.5c0,4.2,1,8.1,3,11.5c2,3.4,4.7,6.1,8.3,8.1
					c3.5,2,7.4,2.9,11.7,2.9c6.5,0,11.9-2.2,16-6.5l3.6,3.6c-2.4,2.6-5.3,4.6-8.7,5.9c-3.4,1.4-7.2,2.1-11.2,2.1
					C68.7,82.3,63.8,81.1,59.5,78.7z"/>
			</g>
		</g>
		<g>
			<g>
				<path fill="#8E8E8E" d="M155,78.5c-4.3-2.4-7.7-5.7-10.1-9.9c-2.5-4.2-3.7-8.9-3.7-14.1c0-5.2,1.2-9.9,3.7-14.1
					c2.5-4.2,5.8-7.5,10.2-9.9s9.2-3.6,14.6-3.6c4,0,7.7,0.7,11.2,2c3.4,1.3,6.3,3.3,8.7,5.9l-3.6,3.6c-4.2-4.3-9.6-6.4-16-6.4
					c-4.3,0-8.2,1-11.7,2.9c-3.5,2-6.3,4.6-8.3,8.1c-2,3.4-3,7.2-3,11.5c0,4.2,1,8.1,3,11.5c2,3.4,4.7,6.1,8.3,8.1
					c3.5,2,7.4,2.9,11.7,2.9c6.5,0,11.9-2.2,16-6.5l3.6,3.6c-2.4,2.6-5.3,4.6-8.7,5.9c-3.4,1.4-7.2,2.1-11.2,2.1
					C164.1,82,159.3,80.8,155,78.5z"/>
			</g>
		</g>
		<g>
			<g>
				<path fill="#46B249" d="M115.3,8.8h6v84.6h-6V8.8z"/>
			</g>
		</g>
		<g>
			<path fill="#8E8E8E" d="M19.1,124.6c-1.4-0.8-2.6-1.9-3.4-3.3c-0.8-1.4-1.2-3-1.2-4.7c0-1.7,0.4-3.3,1.2-4.7
				c0.8-1.4,2-2.5,3.4-3.3c1.4-0.8,3.1-1.2,4.9-1.2c1.3,0,2.6,0.2,3.7,0.7c1.1,0.5,2.1,1.1,2.9,2l-1.2,1.2c-1.4-1.4-3.2-2.1-5.3-2.1
				c-1.4,0-2.7,0.3-3.9,1c-1.2,0.7-2.1,1.6-2.8,2.7c-0.7,1.1-1,2.4-1,3.8s0.3,2.7,1,3.8c0.7,1.1,1.6,2,2.8,2.7c1.2,0.7,2.5,1,3.9,1
				c2.2,0,3.9-0.7,5.3-2.2l1.2,1.2c-0.8,0.9-1.8,1.5-2.9,2c-1.1,0.5-2.4,0.7-3.7,0.7C22.1,125.8,20.5,125.4,19.1,124.6z"/>
			<path fill="#8E8E8E" d="M37.3,124.6c-1.5-0.8-2.6-1.9-3.4-3.3c-0.8-1.4-1.2-3-1.2-4.7c0-1.7,0.4-3.3,1.2-4.7
				c0.8-1.4,2-2.5,3.4-3.3c1.5-0.8,3.1-1.2,4.9-1.2c1.8,0,3.4,0.4,4.8,1.2c1.4,0.8,2.6,1.9,3.4,3.3c0.8,1.4,1.2,3,1.2,4.7
				c0,1.7-0.4,3.3-1.2,4.7c-0.8,1.4-2,2.5-3.4,3.3c-1.4,0.8-3.1,1.2-4.8,1.2C40.3,125.8,38.7,125.4,37.3,124.6z M46,123.1
				c1.2-0.6,2.1-1.5,2.7-2.7c0.7-1.1,1-2.4,1-3.8s-0.3-2.7-1-3.8c-0.7-1.1-1.6-2-2.7-2.7c-1.2-0.6-2.4-1-3.9-1c-1.4,0-2.7,0.3-3.9,1
				c-1.2,0.6-2.1,1.5-2.7,2.7c-0.7,1.1-1,2.4-1,3.8s0.3,2.7,1,3.8c0.7,1.1,1.6,2,2.7,2.7c1.2,0.6,2.5,1,3.9,1
				C43.6,124.1,44.8,123.8,46,123.1z"/>
			<path fill="#8E8E8E" d="M71,107.6v18.1h-1.6L57.8,111v14.7h-1.9v-18.1h1.6l11.6,14.7v-14.7H71z"/>
			<path fill="#8E8E8E" d="M76.9,107.6h7.4c1.9,0,3.6,0.4,5.1,1.1c1.5,0.8,2.6,1.8,3.4,3.2c0.8,1.4,1.2,2.9,1.2,4.7
				c0,1.8-0.4,3.3-1.2,4.7c-0.8,1.4-1.9,2.4-3.4,3.2c-1.5,0.8-3.1,1.2-5.1,1.2h-7.4V107.6z M84.1,124c1.6,0,3-0.3,4.2-0.9
				c1.2-0.6,2.1-1.5,2.8-2.6c0.7-1.1,1-2.4,1-3.8c0-1.4-0.3-2.7-1-3.8c-0.7-1.1-1.6-2-2.8-2.6c-1.2-0.6-2.6-0.9-4.2-0.9h-5.3V124
				H84.1z"/>
			<path fill="#8E8E8E" d="M101.2,124.6c-1.5-0.8-2.6-1.9-3.4-3.3c-0.8-1.4-1.2-3-1.2-4.7c0-1.7,0.4-3.3,1.2-4.7
				c0.8-1.4,2-2.5,3.4-3.3c1.5-0.8,3.1-1.2,4.9-1.2s3.4,0.4,4.8,1.2c1.4,0.8,2.6,1.9,3.4,3.3s1.2,3,1.2,4.7c0,1.7-0.4,3.3-1.2,4.7
				s-2,2.5-3.4,3.3c-1.4,0.8-3.1,1.2-4.8,1.2S102.7,125.4,101.2,124.6z M110,123.1c1.2-0.6,2.1-1.5,2.7-2.7c0.7-1.1,1-2.4,1-3.8
				s-0.3-2.7-1-3.8c-0.7-1.1-1.6-2-2.7-2.7c-1.2-0.6-2.4-1-3.9-1c-1.4,0-2.7,0.3-3.9,1c-1.2,0.6-2.1,1.5-2.7,2.7
				c-0.7,1.1-1,2.4-1,3.8s0.3,2.7,1,3.8c0.7,1.1,1.6,2,2.7,2.7c1.2,0.6,2.5,1,3.9,1C107.5,124.1,108.8,123.8,110,123.1z"/>
			<path fill="#8E8E8E" d="M138.6,107.6v18.1h-1.8v-14.5l-7.1,12.2h-0.9l-7.1-12.1v14.4h-1.8v-18.1h1.6l7.8,13.4l7.8-13.4H138.6z"/>
			<path fill="#8E8E8E" d="M144.5,107.6h1.9v18.1h-1.9V107.6z"/>
			<path fill="#8E8E8E" d="M167.4,107.6v18.1h-1.6L154.2,111v14.7h-1.9v-18.1h1.6l11.6,14.7v-14.7H167.4z"/>
			<path fill="#8E8E8E" d="M173.3,107.6h1.9v18.1h-1.9V107.6z"/>
			<path fill="#8E8E8E" d="M182.9,123.8c-1.3-1.3-2-3.3-2-5.9v-10.4h1.9v10.3c0,2.1,0.5,3.7,1.4,4.7c0.9,1,2.3,1.5,4.1,1.5
				c1.8,0,3.2-0.5,4.1-1.5c0.9-1,1.4-2.6,1.4-4.7v-10.3h1.9v10.4c0,2.6-0.6,4.5-1.9,5.9c-1.3,1.3-3.1,2-5.5,2
				C186,125.8,184.2,125.1,182.9,123.8z"/>
			<path fill="#8E8E8E" d="M220.3,107.6v18.1h-1.8v-14.5l-7.1,12.2h-0.9l-7.1-12.1v14.4h-1.8v-18.1h1.6L211,121l7.8-13.4H220.3z"/>
		</g>
	</g>
</g>
</svg>
