<?xml version="1.0" encoding="utf-8"?>
<!-- Generator: Adobe Illustrator 18.0.0, SVG Export Plug-In . SVG Version: 6.00 Build 0)  -->
<!DOCTYPE svg PUBLIC "-//W3C//DTD SVG 1.1//EN" "http://www.w3.org/Graphics/SVG/1.1/DTD/svg11.dtd">
<svg version="1.1" id="Capa_1" xmlns="http://www.w3.org/2000/svg" xmlns:xlink="http://www.w3.org/1999/xlink" x="0px" y="0px"
	 viewBox="0 0 560 960" enable-background="new 0 0 560 960" xml:space="preserve">
<path fill="#4EB551" d="M8.8,480c0-149.8,121.4-271.3,271.3-271.3S551.3,330.2,551.3,480S429.8,751.3,280,751.3S8.8,629.8,8.8,480z
	 M88,617.7c42.9,59.6,112.9,98.6,192,98.6s149.1-38.9,192-98.6c-3.4-29.5-24.8-54.3-54.2-61.7l-35.4-8.8
	C353.9,571.7,318,585,280,585s-73.9-13.4-102.4-37.8l-35.4,8.8C112.8,563.4,91.4,588.1,88,617.7z M157.5,427.5
	c0,67.6,54.9,122.5,122.5,122.5s122.5-54.9,122.5-122.5S347.6,305,280,305S157.5,359.8,157.5,427.5z"/>
</svg>
