<?xml version="1.0" encoding="utf-8"?>
<!-- Generator: Adobe Illustrator 18.0.0, SVG Export Plug-In . SVG Version: 6.00 Build 0)  -->
<!DOCTYPE svg PUBLIC "-//W3C//DTD SVG 1.1//EN" "http://www.w3.org/Graphics/SVG/1.1/DTD/svg11.dtd">
<svg version="1.1" id="Capa_1" xmlns="http://www.w3.org/2000/svg" xmlns:xlink="http://www.w3.org/1999/xlink" x="0px" y="0px"
	 viewBox="0 0 800 800" enable-background="new 0 0 800 800" xml:space="preserve">
<path fill="#6F6F6F" d="M12.5,400C12.5,186,186,12.5,400,12.5S787.5,186,787.5,400S614,787.5,400,787.5S12.5,614,12.5,400z
	 M125.7,596.7C187,681.9,287,737.5,400,737.5s213-55.6,274.3-140.8c-4.9-42.2-35.4-77.6-77.4-88.1L546.3,496
	c-40.7,35-92,54-146.3,54s-105.6-19.1-146.3-54l-50.6,12.6C161.1,519.1,130.6,554.5,125.7,596.7z M225,325c0,96.6,78.4,175,175,175
	s175-78.4,175-175s-78.4-175-175-175S225,228.3,225,325z"/>
</svg>
